<svg id="Layer_2" data-name="Layer 2" xmlns="http://www.w3.org/2000/svg" viewBox="0 0 487.168 118.554">
  <defs>
    <style>
      .cls-1 {
        fill: #1a1818;
      }
    </style>
  </defs>
  <title>ae5c0ab0-6782-4e43-9f05-bd1f0270822c</title>
  <g>
    <path class="cls-1" d="M113.9,273.008c0.7,3.494,0,7.488-1.1,10.882C109,295.671,98.121,303.957,87.139,308.849a69.355,69.355,0,0,1-14.776,4.892,23.247,23.247,0,0,1-9.085.2c-1.6-.2-5.89-0.6-6.889-2-1-1.2.1-1.1,1.3-1.3a56.75,56.75,0,0,0,8.386-1.8,77.771,77.771,0,0,0,18.07-8.187A61.685,61.685,0,0,0,98.52,289.181a31.567,31.567,0,0,0,4.892-7.188c0.6-1.3,1.8-5.291,1.2-5.89a8.234,8.234,0,0,1-.6-3.1c0.1,0.7.5,1.4,0.6,1.9a9.939,9.939,0,0,0-.8-3.295v0.3a11.9,11.9,0,0,0-1.6-1.9,5.6,5.6,0,0,0-3.195-1.5c-2.5-.3-4.093,1-6.289,1.6-2.6.7-9.884-3.993-6.989-6.29,1.3-1,3.394-1.5,4.892-2.4a56.906,56.906,0,0,0,7.088-5.89,59.151,59.151,0,0,0,6.489-7.588c0.5-.7,3.694-6.19,4.193-6.09,0,0-.8,1.8-0.8,1.9a52.994,52.994,0,0,0,3-6.39v-0.1l0.1-.1,0.1-.3c1.3-2.995,2.6-9.085-.1-9.784-1.8-.5-3.894,2.1-4.992,3.195a109.292,109.292,0,0,0-14.876,18.969c-2.5,3.794-4.792,7.587-7.088,11.481-1.4,2.3-3.295,4.193-4.293,6.589-3.1,7.288-6.39,14.276-8.786,21.864a95.79,95.79,0,0,0-2.7,11.781l-0.3-.6c-2.8,3-6.889.9-8.187-2.3-1.5-3.295-.7-8.087-0.6-11.581a66.5,66.5,0,0,1,1.4-12.579,38.512,38.512,0,0,1,1.6-4.792c0.1-.4.4-3.494,0.7-3.594a0.367,0.367,0,0,0,.1.3c0-.2.1-0.4,0.1-0.7-0.4,1-.1-1.6,0-1.7a29.857,29.857,0,0,1,.9-3.195,40.722,40.722,0,0,0,1.4-5.79c0.2-.7,2.7-9.584,3.694-9.385,0.2,0.1-.2.7-0.1,0.8l0.7-2.2c-0.3-.1,4.492-10.682,4.892-11.581,1.8-3.295,3.1-6.589,5.99-8.985,1.8-1.4,3.994-5.691,7.288-4.492a5.926,5.926,0,0,1,3.1,4.393c0,1.2-.6,1.4-1.2,2.1a0.763,0.763,0,0,1,.5-0.2c0.2,0.1-2.4,3.494-2.7,3.395a3.951,3.951,0,0,1,.6-1.2,79.394,79.394,0,0,0-8.786,15.874c1-2.1,5.092-10.582,5.79-10.882-0.5.3-5.191,10.483-5.691,11.381a104.059,104.059,0,0,0-4.393,12.18c-1.1,3.993-1.9,7.987-3,11.98a92.532,92.532,0,0,0-2.7,9.984,2.084,2.084,0,0,1,.4-0.6c0.1-.1-0.4,4.692-0.4,4.992l-0.4,3.794c4.293-14.576,11.481-28.353,19.967-40.833-3.195,4.592-6.19,9.384-8.985,14.276-1.3,2.5-2.6,4.992-3.794,7.488-0.9,1.8-2.8,4.693-3.1,6.49,0.2-1.7,1.6-3.694,2.3-5.192a55.928,55.928,0,0,1,2.7-5.491c1.7-3.295,3.494-6.589,5.391-9.784a188.909,188.909,0,0,1,13.777-19.368,104.794,104.794,0,0,1,7.687-8.586c2.1-2,4.992-5.191,7.987-5.691,5.591-.9,9.085,4.892,9.584,9.684,1.8,14.377-10.682,29.152-23.262,34.643C105.609,262.824,112.4,265.919,113.9,273.008Zm-49.419.3a10.278,10.278,0,0,0,.1-1.7,27.938,27.938,0,0,0-1.5,2.995,22.353,22.353,0,0,0-.7,7.288,12.681,12.681,0,0,1,.8-5.092A13.285,13.285,0,0,0,64.476,273.307Zm12.979-26.556a1.42,1.42,0,0,0-.2.6Zm1.6-3.794a0.759,0.759,0,0,0-.2.4Zm26.257,39.435-0.5,1.2a40.184,40.184,0,0,1-6.09,9.085l-3.394,3.594c1.2-.9,2.7-1.5,4.093-2.7a14.244,14.244,0,0,0,3.894-5.192A26.406,26.406,0,0,0,105.309,282.392ZM95.725,235.17l0.7-.7ZM111.9,251.443c0.9-1,1.7-2,2.6-2.9a21.534,21.534,0,0,0,4.692-8.786,66.033,66.033,0,0,1-3.494,6.09A42.376,42.376,0,0,1,111.9,251.443Z" transform="translate(-56 -196.714)"/>
    <path class="cls-1" d="M159.822,278.6a34.991,34.991,0,0,1-2.9,4.892c-2.3,3.394-4.792,6.789-7.188,10.183a51.494,51.494,0,0,1-8.187,9.285c-0.6.4-5.191,4.093-5.491,3.994a0.528,0.528,0,0,1,.2-0.3l-0.7.3c0.5-.1-1.4,1.2-1.9,1.4a5.459,5.459,0,0,1-4.093-.9,6.8,6.8,0,0,1-2.6-3.395,10.95,10.95,0,0,1-.7-6.689c0.1-.5,1.5-6.29,2.2-6.19,0.2,0-.2.8-0.1,0.9l0.7-2.5c-0.3-.1,4.992-11.282,5.491-11.98-2.995.6-6.789,0.5-8.885-2.1a4.826,4.826,0,0,1-.6-2.1c-0.3-.8-0.7-1.2-0.9-1.9-1-4.892,4.692-11.681,9.485-8.386l-0.2-.3c0.1-.6,1.3.9,1.4,1.4,0,0.4-.8,3.195-1.3,3-0.1,0,.6-1.8.6-1.9-0.7,1.9-2.8,3.994-2.995,5.99-0.2,1.5.6,1.5,1.9,1.8,1.9,0.5,4.892.2,7.288,0.9a31.867,31.867,0,0,0-4.792-.8,0.1,0.1,0,0,1-.1-0.1c1.5,0.2,3.1.2,4.393,0.5,2.9,0.7,4.693,1.8,3.494,4.892-1.2,2.9-2.7,5.791-3.993,8.686-1.2,2.8-2.2,5.79-3.295,8.686-0.3,1-2.5,5.192-1.7,6.19,1,1.2,6.489-3.794,7.987-5.391a9.085,9.085,0,0,1-.8.5,29.591,29.591,0,0,1,2.3-3.195l2.9-3.694,5.391-7.088,5.491-7.388c0.5-.6,2.9-4.093,3.494-1.5C161.419,275.7,160.421,277.4,159.822,278.6Zm-30.949,26.956a0.53,0.53,0,0,1-.2-0.3l0.1,0.1c-0.5-1.1-1-2.2-1.2-2.8l0.3,1.3-0.4-2.1v-0.1a0.772,0.772,0,0,1-.1-0.3,0.308,0.308,0,0,0,.1.2v-0.5a17.572,17.572,0,0,1,.2-3.993v-0.1a11.746,11.746,0,0,0-.3,2.7,12.2,12.2,0,0,0,.3,3.794,16.045,16.045,0,0,0,1.5,2.8c0-.1,0-0.2-0.1-0.2a5.925,5.925,0,0,0,2.3,1.4,5.57,5.57,0,0,1-2.5-2v0.1Zm-1.2-8.686v0.1c0-.1.1-0.2,0.1-0.3C127.774,296.769,127.675,296.769,127.675,296.869Zm0.3-1.9a2.268,2.268,0,0,1-.1.4A2.268,2.268,0,0,0,127.974,294.972Zm0.2,0a60.881,60.881,0,0,1,2.8-7.488l1.9-4.393c0.5-.9,2.6-5.79,3.095-6.09-0.7.2-2.1,3.794-2.3,4.093a48.859,48.859,0,0,0-2.4,5.191A52.862,52.862,0,0,0,128.174,294.972Zm0.2,9.784a0.348,0.348,0,0,0-.1-0.2C128.274,304.656,128.373,304.656,128.373,304.756Zm2.9-33.145a0.1,0.1,0,0,1,.1-0.1Zm0,0.1a4.511,4.511,0,0,0,.7.7,3.965,3.965,0,0,0,2,.7,4.834,4.834,0,0,1-2.3-.6A1.234,1.234,0,0,1,131.269,271.71Zm10.882,8.486-2.1,4.493,2.1-4.393v-0.1Zm0-.1h0.1V280Zm0,0h0.1V280Z" transform="translate(-56 -196.714)"/>
    <path class="cls-1" d="M191.67,275.8l-3.1,4.093-5.391,6.989c-1.4,1.8-3.1,3.494-4.493,5.291-1.5,2-2.8,4.093-4.493,5.99a26.456,26.456,0,0,1-6.289,5.192,6.493,6.493,0,0,1-5.092.5,13.362,13.362,0,0,1-6.589-4.293,3.675,3.675,0,0,1-1.1-1.9,12.259,12.259,0,0,1-.2-2,12.561,12.561,0,0,1,.5-3.295c0.2-1.3.8-2.5,1-3.794,0.2-1.4.6-2.7,0.8-3.993a22.9,22.9,0,0,1,.2-3.694c0.2-.8.8-1.6,1.1-2.5a9.448,9.448,0,0,0-.9,1.7c-0.3.8-.5,1.6-0.8,2.3-0.3.8-.4,1.5-0.7,2.3a8.581,8.581,0,0,0-.9,2.7c-0.1.9,0,1.8-.1,2.7a10.833,10.833,0,0,0-.4,2.5c0,0.3.2,0.9,0.2,1.1,0,0.4-.2.9-0.2,1.4,0,0.9.2,1.8,0.3,2.8-1.6-2.8-1.3-5.591-.8-8.586s0.9-5.89,1.6-8.786a40.092,40.092,0,0,1,7.787-16.373c3.095-4.093,7.188-7.188,12.579-6.19a9.121,9.121,0,0,1,5.491,2.995c1.4,1.9,1.3,4.293.6,6.489-1.3,3.894-4.592,6.989-7.687,9.584a32.48,32.48,0,0,1-4.193,3.1,18.215,18.215,0,0,1-3.195,1.4l-1.7.6c-0.7.2-.8,0.1-1.1,0.7-0.5,1-.2,2-0.4,2.995-0.2,1.3-.5,2.5-0.8,3.794-0.5,2.4-1.3,5.491-.7,7.987,1.1,5.092,9.485-2.8,10.982-4.193,1-.9,1.9-1.9,2.8-2.8,0.5-.6,1.1-1.1,1.5-1.7a3.1,3.1,0,0,0,.2-0.7,54.459,54.459,0,0,1,4.293-5.491c1.8-2.1,3.395-4.293,5.092-6.589,0.9-1.3,3-4.992,4.592-2.3v0.1c0.1,0.1.1,0.1,0.1,0A1.534,1.534,0,0,1,191.67,275.8Zm-25.658,2.4a28.866,28.866,0,0,0,8.386-6.689l1.7-2.2a7.1,7.1,0,0,0,1-1.4c0.1-.5-0.1-0.9,0-1.5l0.4-2.1c0.1-1-.3-3.594-1.8-3.295a4.636,4.636,0,0,0-1.8,1.6l-1.8,2.4c-2.1,3.095-3.195,6.489-4.692,9.684a0.774,0.774,0,0,1-.1.3C166.811,276,166.512,277.1,166.012,278.2Z" transform="translate(-56 -196.714)"/>
    <path class="cls-1" d="M232.9,280.995a73.926,73.926,0,0,1-4.393,8.386,75.765,75.765,0,0,1-5.99,8.486c-1.8,2.3-4.293,5.192-7.288,5.691-3.395.6-6.09-2.2-7.188-5.192-2.4-5.89-.7-12.08,1.1-17.771a13.644,13.644,0,0,1,.1-1.6c-1,1.5-2.4,3.295-3.295,4.692-1.2,1.9-2.1,3.794-3.394,5.591-0.6.9-8.786,10.782-9.884,9.085,0,0,1.2-.5,1.1-0.7a5.152,5.152,0,0,1-4.193.6c0.3,0.2.5,0.3,0.4,0.3-2.3.3-4.093-3.295-4.592-4.892a19.625,19.625,0,0,1-.1-8.686,46.972,46.972,0,0,1,6.889-17.072,14.683,14.683,0,0,1,3.095-3.494,18.827,18.827,0,0,1,2.4-1.4c1.5-1.3,2.8-2.4,4.992-2.4,4.892,0,6.889,5.591,7.887,9.385,2.4-3.1,6.689-7.188,10.383-2.7,2,2.4.7,4.193-.4,6.39a46.234,46.234,0,0,0-4.193,11.381c0.1-.3.4-1.8,0.8-1.9,0.8-.2-6.39,22.363,3.894,9.684,3.1-3.894,5.79-7.987,8.486-12.08,1.2-1.9,2.4-3.894,3.694-5.79,0.6-.8,2.4-2.7,2.5-0.5C235.9,276.8,233.7,279.1,232.9,280.995Zm-25.359-7.388c0-.8-2-6.29-1.5-6.689,0.1-.1,1,2.8,1.1,2.995-0.3-1.2-.7-4.892-2.5-4.892-3.295,0-5.791,6.09-6.889,8.386a58.876,58.876,0,0,0-4.592,14.177c0.3-1.5,6.09-19.568,7.887-19.468-1.4.3-6.689,15.674-6.989,17.072-0.2.8-1.8,5.99-.3,6.49,1,0.3,3.395-2.8,3.894-3.494q2.845-3.445,5.391-7.188l2.6-3.694c0.4-.7.9-1.4,1.4-2.1A2.041,2.041,0,0,0,207.544,273.607Zm0.3-.7v1A0.665,0.665,0,0,0,207.844,272.908Zm2.4,4.792-0.5.7c-0.1.3-.4,1.7-0.4,1.7Z" transform="translate(-56 -196.714)"/>
    <path class="cls-1" d="M268.945,246.751c0.1,1.4-1.6,2.5-2.8,2.8-1.3.4-2.8-.4-3.993-0.2-0.7.2-.5,0.5-1.1,0.7a9.446,9.446,0,0,1-2.895.2c-1.3,0-4.093-.7-5.191,0a1.689,1.689,0,0,0-.6.6l0.3-.6c-0.6.1-1.6,2.8-2.3,4.592l1.1-2.2-1.4,3.794c-1,2.1-1.9,4.293-2.8,6.39-1.8,4.193-3.395,8.287-4.992,12.58a222.177,222.177,0,0,0-7.188,24.061c-0.3,1.4-2,7.188-.1,7.987,0.3,0.2,2.4-1,2.3-.9,0.5-.5,1.1-1,1.6-1.6a5.252,5.252,0,0,1-1.5,1c-0.1-.6,2.4-2.6,2.8-3.1,1-1,1.9-2.1,2.8-3.1l5.79-7.088c3.594-4.492,6.989-9.085,10.583-13.578,0.8-1,2.6-4.493,3.894-4.792,1.6-.3,1.9,1.3,1.4,2.6-0.9,2.7-3.595,4.892-4.992,7.288-2.5,4.193-5.491,8.086-8.386,12.08-3.2,4.293-6.39,8.586-9.884,12.679-1.6,2-3.693,4.792-6.189,5.99-1.9.9-4.393-.2-5.991-1.4a7.582,7.582,0,0,1-3.194-4.992c-0.1-.6-0.7-3.794-0.1-4.493v1.5l0.2-2c-0.2.4-.2-0.9-0.2-1.1a10.813,10.813,0,0,1,.4-2.5,39.209,39.209,0,0,1,1-4.692c0.7-3.1,1.5-6.19,2.1-9.385a56.98,56.98,0,0,1,2.6-9.185c0.2-.5,2.2-6.589,2.7-6.589a6.854,6.854,0,0,1-.2,1.3c0.4-1.5,1-3,1.5-4.493-0.2.5-.5,1-0.5,0.8,0-1.2,1.3-3.295,1.7-4.393l1.2-3.494a95.946,95.946,0,0,1,3.594-9.385c-2.8.2-5.491,0-8.087,0.5-3.794.7-8.586,0.3-12.379-.2-0.5-.1-2.9-0.2-2.3-1.3a11.464,11.464,0,0,1,2.8-.9,19.514,19.514,0,0,1,5.89-.8c3.894-.4,7.687-0.2,11.581-0.7,1-.1,2.7.2,3.594-0.2,0.9-.3.9-1,1.3-1.9,0.7-1.8,1.5-3.594,2.3-5.291a37,37,0,0,1,2.9-5.591c0.8-1.1,1.6-1.4,2.2-2.6a33,33,0,0,1,4.493-7.687c2-2.6,5.491-2.995,8.586-2.4,1.5,0.3,3.594,1.2,2.895,3.195-0.3.8-1.3,1.3-1.9,1.9,0,0.1.9-.9,0.9-0.5-0.1.7-3.794,5.79-4.093,5.691-0.1,0,1.4-2.5,1.5-2.7a147.4,147.4,0,0,0-9.984,17.771,1.78,1.78,0,0,0,1-1.1,6.433,6.433,0,0,0-.5,1.1c3.894-.2,7.887-0.2,11.881-0.4,0.8,0,2.3-1.1,2.4.3v0.1ZM233.2,308.15a0.528,0.528,0,0,0,.3.2Zm29.751-80.667c-7.987,11.282-12.979,24.659-18.57,37.139a165.033,165.033,0,0,0-8.286,22.563c-1,3.494-1.8,6.989-2.5,10.583l0.5-1.9a111.974,111.974,0,0,1,4.393-13.877c3.594-9.884,6.989-20.067,11.481-29.551C253.969,243.955,257.564,235.17,262.955,227.483Zm-16.573,36.44c-0.9,2-1.6,3.994-2.4,5.89,0.8-1.8,1.6-3.594,2.3-5.491A0.758,0.758,0,0,1,246.382,263.923Zm9.884-20.666-1,2.2A23.4,23.4,0,0,0,256.266,243.257Zm2.7-5.291-2.4,4.592C257.564,240.262,258.462,238.065,258.961,237.965Z" transform="translate(-56 -196.714)"/>
    <path class="cls-1" d="M309.279,274.605c0.4-.1-2.3,5.491-2.7,5.99-1.5,2.4-3.1,4.792-4.692,7.088-2.9,4.393-5.591,9.485-9.384,13.178-1.4,1.3-2.4,2-4.293,1.9a7.506,7.506,0,0,1-5.291-2.6c-0.3-.3-2.995-2.6-2.7-3.295l0.6,0.9a7.72,7.72,0,0,1-.7-1.6v0.4c-0.3.3-1.1-3.295-1.1-3.694a17.224,17.224,0,0,1,.5-4.493c0.7-2.4,1.4-4.792,2-7.188a42.538,42.538,0,0,1,3.2-7.288c0.2-.4,2.1-4.293,2.5-4.293a4.493,4.493,0,0,0-.3,1.1l1.5-3.395-0.3.3,2.9-6.989c-3.694,3-6.589,7.088-9.485,10.682-1.4,1.7-2.7,3.794-4.393,5.192-0.6.5-.8,0.2-1.3,0.8a10.389,10.389,0,0,0-1,1.8c-2.3,3.794-5.191,7.188-7.587,10.882l-1.8,3.195a3.775,3.775,0,0,1-.6,1.3c-1.3,1.4-3.594.9-4.692-.5a5.217,5.217,0,0,1-1-3.594c-0.4-4.393.6-9.085,1.4-13.378a192.958,192.958,0,0,1,7.088-27.854c2.7-8.087,6.789-15.375,10.683-22.962,0-.1.5-2.2,1-2.5-0.1.1-.7,1.9-0.7,1.9l1.2-2.3a0.31,0.31,0,0,1-.2-0.1c0-1.8,2.2-4.493,3.194-5.99,1.4-2.3,2.9-4.493,4.493-6.689,2.8-3.894,5.491-8.187,9.285-11.082,2-1.5,4.393-2.9,6.989-2.7a4.99,4.99,0,0,1,3.494,1.4c0.4,0.4,2.2,3.494,1.6,3.894a9.4,9.4,0,0,0-.6-1.5,12.275,12.275,0,0,1,.6,4.992c0.1-.2.1-0.3,0.2-0.3,0.5,0-1.7,9.185-1.9,9.984a73.9,73.9,0,0,1-3.894,10.183c-3.395,6.989-7.488,14.476-12.58,20.467-1,1.1-2.3,1.9-3.2,2.8-1,1.1-1.7,2.5-2.7,3.694a94.011,94.011,0,0,1-8.286,8.386,9.955,9.955,0,0,0-3.1,4.693c-0.7,2.1-1.3,4.193-2,6.19-1.3,3.993-2.5,7.987-3.594,12.08,1.7-2.6,3.495-5.092,5.391-7.587-1.3,1.5-2.2,2.6-2.2,2.6-0.2-.1,12.379-15.475,13.677-16.872,3-3.194,8.486-10.083,12.879-4.692,2.5,3.1.6,6.789-.9,9.784-2.6,5.491-5.79,11.88-7.388,17.471,0.1-.1.6-1.6,0.9-1.4,0.6,0.6-1.2,5.291-1.4,6.19-0.1.7-.8,3.894,0,4.393,1.3,0.9,3.594-1.8,4.492-2.6,3.595-3.494,6.889-7.388,10.184-11.182a53.085,53.085,0,0,1,3.794-4.493c0.3-.3,1-1.3,1.5-1.3C308.78,274.006,309.878,274.505,309.279,274.605Zm-34.543-18.569c-0.1.5-.5,2.1-0.3,2.1-0.3-.1,3.693-10.583,4.093-11.581,0.8-2.1,2-3.894,2.7-6.09a46.246,46.246,0,0,1,2.9-6.39c1.3-2.8,13.578-26.257,12.779-26.756-0.2-.1-9.784,18.17-10.683,20.167-2,4.193-4.592,8.187-6.189,12.579-1.8,5.192-4.293,10.283-5.192,15.674Zm0,0a0.349,0.349,0,0,0,.1-0.2C274.835,255.936,274.736,255.936,274.736,256.036Zm25.058-49.119c-3.594,5.691-6.689,11.88-9.783,17.871-2.8,5.491-5.89,11.182-8.287,16.673a3.833,3.833,0,0,1,.8-1.1s-2.1,5.89-2.4,6.489l-2.995,7.887A128.8,128.8,0,0,0,295.6,229.679c-2,3.295-4.093,6.589-6.289,9.584l-3.994,5.591-1.8,1.8,0.8-.9c1-1.2,1.9-2.4,2.8-3.594,1.7-2.4,3.395-4.892,4.992-7.388a113.716,113.716,0,0,0,8.686-16.074,68.544,68.544,0,0,0,3.194-8.985c0.4-1.5,1.7-5.691.3-6.889s-3.395,2.4-4.193,3.594c0.1-.1,0,0.1-0.1.3v-0.1a0.1,0.1,0,0,1-.1.1v0.1A0.1,0.1,0,0,1,299.794,206.916Zm-17.371,40.933c-0.3.3-.5,0.7-0.7,0.9A5.513,5.513,0,0,1,282.423,247.849Zm17.571-41.133h-0.1v0.1Z" transform="translate(-56 -196.714)"/>
    <path class="cls-1" d="M339.931,275.8l-3.1,4.093-5.391,6.989c-1.4,1.8-3.1,3.494-4.492,5.291-1.5,2-2.8,4.093-4.493,5.99a26.453,26.453,0,0,1-6.29,5.192,6.491,6.491,0,0,1-5.091.5,13.363,13.363,0,0,1-6.59-4.293,3.679,3.679,0,0,1-1.1-1.9,12.332,12.332,0,0,1-.2-2,12.548,12.548,0,0,1,.5-3.295c0.2-1.3.8-2.5,1-3.794,0.2-1.4.6-2.7,0.8-3.993a22.866,22.866,0,0,1,.2-3.694c0.2-.8.8-1.6,1.1-2.5a9.472,9.472,0,0,0-.9,1.7c-0.3.8-.5,1.6-0.8,2.3-0.3.8-.4,1.5-0.7,2.3a8.582,8.582,0,0,0-.9,2.7c-0.1.9,0,1.8-.1,2.7a10.849,10.849,0,0,0-.4,2.5c0,0.3.2,0.9,0.2,1.1,0,0.4-.2.9-0.2,1.4,0,0.9.2,1.8,0.3,2.8-1.6-2.8-1.3-5.591-.8-8.586s0.9-5.89,1.6-8.786a40.088,40.088,0,0,1,7.787-16.373c3.1-4.093,7.188-7.188,12.579-6.19a9.124,9.124,0,0,1,5.491,2.995c1.4,1.9,1.3,4.293.6,6.489-1.3,3.894-4.593,6.989-7.688,9.584a32.461,32.461,0,0,1-4.193,3.1,18.2,18.2,0,0,1-3.194,1.4l-1.7.6c-0.7.2-.8,0.1-1.1,0.7-0.5,1-.2,2-0.4,2.995-0.2,1.3-.5,2.5-0.8,3.794-0.5,2.4-1.3,5.491-.7,7.987,1.1,5.092,9.485-2.8,10.982-4.193,1-.9,1.9-1.9,2.8-2.8,0.5-.6,1.1-1.1,1.5-1.7a3.1,3.1,0,0,0,.2-0.7,54.462,54.462,0,0,1,4.293-5.491c1.8-2.1,3.394-4.293,5.091-6.589,0.9-1.3,2.995-4.992,4.593-2.3v0.1c0.1,0.1.1,0.1,0.1,0A1.533,1.533,0,0,1,339.931,275.8Zm-25.658,2.4a28.862,28.862,0,0,0,8.386-6.689l1.7-2.2a7.088,7.088,0,0,0,1-1.4c0.1-.5-0.1-0.9,0-1.5l0.4-2.1c0.1-1-.3-3.594-1.8-3.295a4.635,4.635,0,0,0-1.8,1.6l-1.8,2.4c-2.1,3.095-3.194,6.489-4.692,9.684a0.772,0.772,0,0,1-.1.3C315.072,276,314.772,277.1,314.273,278.2Z" transform="translate(-56 -196.714)"/>
  </g>
  <g>
    <path class="cls-1" d="M354.263,257.774h4.092l18.124,43.2h0.13l17.929-43.2h4.093v46.382h-2.859V261.282h-0.129l-17.67,42.874h-2.858l-17.865-42.874h-0.13v42.874h-2.858V257.774Z" transform="translate(-56 -196.714)"/>
    <path class="cls-1" d="M409.414,257.774H440.6v2.469H412.272v18.579h26.634v2.469H412.272v20.4H440.92v2.469H409.414V257.774Z" transform="translate(-56 -196.714)"/>
    <path class="cls-1" d="M448.39,257.774h15.2a24.237,24.237,0,0,1,10.361,1.949,17.472,17.472,0,0,1,6.594,5.2,19.812,19.812,0,0,1,3.475,7.406,36.32,36.32,0,0,1,1.007,8.575,32.1,32.1,0,0,1-1.267,9.192,19.978,19.978,0,0,1-3.931,7.373,18.47,18.47,0,0,1-6.723,4.9,23.816,23.816,0,0,1-9.647,1.786H448.39V257.774Zm15.33,43.914a22.128,22.128,0,0,0,6.528-1.007,15.851,15.851,0,0,0,5.944-3.378,17.138,17.138,0,0,0,4.32-6.366,26.355,26.355,0,0,0,1.656-10.036,30.545,30.545,0,0,0-.942-8.121,20,20,0,0,0-2.469-5.684,12.851,12.851,0,0,0-3.507-3.638,17.313,17.313,0,0,0-4.093-2.047,19.819,19.819,0,0,0-4.222-.942,35.994,35.994,0,0,0-3.8-.227H451.248v41.445h12.473Z" transform="translate(-56 -196.714)"/>
    <path class="cls-1" d="M494.317,257.774h2.858v46.382h-2.858V257.774Z" transform="translate(-56 -196.714)"/>
    <path class="cls-1" d="M521.731,257.774h3.118l18.319,46.382h-3.053l-5.847-14.876H512.052l-5.911,14.876h-3.053Zm11.628,29.037-9.939-26.244h-0.13l-10.329,26.244h20.4Z" transform="translate(-56 -196.714)"/>
  </g>
</svg>
